<svg width="38" height="182" viewBox="0 0 38 182" fill="none" xmlns="http://www.w3.org/2000/svg">
<g opacity="0.9">
<circle cx="3" cy="3" r="3" transform="matrix(1 0 0 -1 16 6)" fill="#06726D" fill-opacity="0.2"/>
<circle cx="3" cy="3" r="3" transform="matrix(1 0 0 -1 16 35)" fill="#06726D" fill-opacity="0.2"/>
<circle cx="3" cy="3" r="3" transform="matrix(1 0 0 -1 16 21)" fill="#06726D" fill-opacity="0.2"/>
<circle cx="3" cy="3" r="3" transform="matrix(1 0 0 -1 0 21)" fill="#06726D" fill-opacity="0.2"/>
<circle cx="3" cy="3" r="3" transform="matrix(1 0 0 -1 32 21)" fill="#06726D" fill-opacity="0.2"/>
<circle cx="3" cy="3" r="3" transform="matrix(1 0 0 -1 16 55)" fill="#06726D" fill-opacity="0.2"/>
<circle cx="3" cy="3" r="3" transform="matrix(1 0 0 -1 16 84)" fill="#06726D" fill-opacity="0.2"/>
<circle cx="3" cy="3" r="3" transform="matrix(1 0 0 -1 16 70)" fill="#06726D" fill-opacity="0.2"/>
<circle cx="3" cy="3" r="3" transform="matrix(1 0 0 -1 0 70)" fill="#06726D" fill-opacity="0.2"/>
<circle cx="3" cy="3" r="3" transform="matrix(1 0 0 -1 32 70)" fill="#06726D" fill-opacity="0.2"/>
<circle cx="3" cy="3" r="3" transform="matrix(1 0 0 -1 16 104)" fill="#06726D" fill-opacity="0.2"/>
<circle cx="3" cy="3" r="3" transform="matrix(1 0 0 -1 16 133)" fill="#06726D" fill-opacity="0.2"/>
<circle cx="3" cy="3" r="3" transform="matrix(1 0 0 -1 16 119)" fill="#06726D" fill-opacity="0.2"/>
<circle cx="3" cy="3" r="3" transform="matrix(1 0 0 -1 0 119)" fill="#06726D" fill-opacity="0.2"/>
<circle cx="3" cy="3" r="3" transform="matrix(1 0 0 -1 32 119)" fill="#06726D" fill-opacity="0.2"/>
<circle cx="3" cy="3" r="3" transform="matrix(1 0 0 -1 16 153)" fill="#06726D" fill-opacity="0.2"/>
<circle cx="3" cy="3" r="3" transform="matrix(1 0 0 -1 16 182)" fill="#06726D" fill-opacity="0.2"/>
<circle cx="3" cy="3" r="3" transform="matrix(1 0 0 -1 16 168)" fill="#06726D" fill-opacity="0.2"/>
<circle cx="3" cy="3" r="3" transform="matrix(1 0 0 -1 0 168)" fill="#06726D" fill-opacity="0.2"/>
<circle cx="3" cy="3" r="3" transform="matrix(1 0 0 -1 32 168)" fill="#06726D" fill-opacity="0.2"/>
</g>
</svg>
